<?xml version="1.0" encoding="UTF-8" standalone="no"?>
<svg
   xmlns:dc="http://purl.org/dc/elements/1.1/"
   xmlns:cc="http://creativecommons.org/ns#"
   xmlns:rdf="http://www.w3.org/1999/02/22-rdf-syntax-ns#"
   xmlns:svg="http://www.w3.org/2000/svg"
   xmlns="http://www.w3.org/2000/svg"
   xmlns:sodipodi="http://sodipodi.sourceforge.net/DTD/sodipodi-0.dtd"
   xmlns:inkscape="http://www.inkscape.org/namespaces/inkscape"
   id="Layer_1"
   enable-background="new 0 0 512 512"
   height="611.22198"
   viewBox="0 0 1703.6894 611.22198"
   width="1703.6895"
   version="1.1"
   sodipodi:docname="logo.svg"
   inkscape:version="0.92.4 5da689c313, 2019-01-14">
  <metadata
     id="metadata108">
    <rdf:RDF>
      <cc:Work
         rdf:about="">
        <dc:format>image/svg+xml</dc:format>
        <dc:type
           rdf:resource="http://purl.org/dc/dcmitype/StillImage" />
        <dc:title></dc:title>
      </cc:Work>
    </rdf:RDF>
  </metadata>
  <defs
     id="defs106" />
  <sodipodi:namedview
     pagecolor="#ffffff"
     bordercolor="#666666"
     borderopacity="1"
     objecttolerance="10"
     gridtolerance="10"
     guidetolerance="10"
     inkscape:pageopacity="0"
     inkscape:pageshadow="2"
     inkscape:window-width="1366"
     inkscape:window-height="710"
     id="namedview104"
     showgrid="false"
     fit-margin-top="16"
     fit-margin-left="16"
     fit-margin-right="16"
     fit-margin-bottom="16"
     inkscape:zoom="0.32593203"
     inkscape:cx="808.33375"
     inkscape:cy="265.29465"
     inkscape:window-x="0"
     inkscape:window-y="0"
     inkscape:window-maximized="1"
     inkscape:current-layer="g89" />
  <path
     inkscape:connector-curvature="0"
     style="font-style:normal;font-variant:normal;font-weight:bold;font-stretch:normal;font-size:461.68359375px;line-height:1.25;font-family:'Source Sans Pro';-inkscape-font-specification:'Source Sans Pro, Bold';font-variant-ligatures:normal;font-variant-caps:normal;font-variant-numeric:normal;font-feature-settings:normal;text-align:start;letter-spacing:0px;word-spacing:0px;writing-mode:lr-tb;text-anchor:start;fill:#71e4bf;fill-opacity:1;stroke:none;stroke-width:16;stroke-miterlimit:4;stroke-dasharray:none"
     d="m 732.4668,179.89648 v 284.55664 h 82.49023 c 42.41434,10e-6 77.206,-11.40999 101.47461,-34.55078 24.26861,-23.14078 38.72656,-58.49406 38.72656,-108.88086 0,-50.62452 -14.41214,-85.27275 -39.11328,-107.77734 -24.70113,-22.50459 -60.60454,-33.34766 -105.24219,-33.34766 z m 292.707,0 v 151.28125 c 0,49.69426 10.2219,84.35664 28.8594,106.32032 18.6375,21.96367 46.1394,32.49609 84.5645,32.49609 38.425,0 65.5272,-10.50533 83.8261,-32.44336 18.299,-21.93803 28.211,-56.64238 28.211,-106.37305 V 179.89648 h -52.791 v 159.13086 c -1e-4,29.46306 -4.4225,50.35178 -14.6485,64.66797 -10.2259,14.31619 -26.3846,20.43164 -44.5976,20.43164 -18.0047,0 -33.9078,-6.19989 -43.8067,-20.53515 -9.8989,-14.33527 -14.0566,-35.14431 -14.0566,-64.56446 V 179.89648 Z m 309.3282,0 v 284.55664 h 56.0234 V 179.89648 Z m 118.1914,0 v 44.01954 h 81.7168 v 240.5371 h 55.5625 v -240.5371 h 81.7168 v -44.01954 z m -664.20317,41.71094 h 18.15625 c 25.3305,0 48.46711,5.21908 65.22461,21.05664 16.75751,15.83756 25.87891,41.2866 25.87891,78.35742 0,36.84836 -9.09368,62.75297 -25.75,79.2129 -16.65632,16.45991 -39.87074,22.50781 -65.35352,22.50781 H 788.49023 V 229.60742 Z"
     id="path871-7" />
  <g
     id="g101"
     transform="translate(-48.9,16)">
    <path
       d="m 439.597,366.285 c 0,-130.318 -101.833,-185.271 -101.833,-185.271 H 174.236 c 0,0 -101.833,54.953 -101.833,185.271 0,72.822 63.594,121.926 119.71,132.693 19.707,3.781 39.752,5.522 59.819,5.522 h 8.137 c 20.067,0 40.111,-1.741 59.819,-5.522 56.115,-10.767 119.709,-59.871 119.709,-132.693 z"
       id="path63"
       inkscape:connector-curvature="0"
       style="fill:#008892" />
    <path
       d="m 159.156,141.619 h 193.688 v 39.396 H 159.156 Z"
       id="path65"
       inkscape:connector-curvature="0"
       style="fill:#71e4bf" />
    <path
       d="m 159.156,102.223 h 193.688 v 39.396 H 159.156 Z"
       id="path67"
       inkscape:connector-curvature="0"
       style="fill:#71e4bf" />
    <path
       d="m 137.791,7.5 36.393,94.723 H 337.798 L 374.192,7.5 Z"
       id="path69"
       inkscape:connector-curvature="0"
       style="fill:#008892" />
    <circle
       cx="256"
       cy="338.32401"
       r="98.961998"
       id="circle71"
       style="fill:#fef3a8" />
    <path
       d="M 212.113,498.978 C 155.997,488.211 92.403,439.107 92.403,366.285 c 0,-130.318 101.833,-185.271 101.833,-185.271 h -20 c 0,0 -101.833,54.953 -101.833,185.271 0,72.822 63.594,121.926 119.71,132.693 19.707,3.781 39.752,5.522 59.818,5.522 h 8.137 c 1.978,0 3.955,-0.031 5.932,-0.065 -18.082,-0.312 -36.122,-2.049 -53.887,-5.457 z"
       id="path73"
       inkscape:connector-curvature="0"
       style="fill:#00595e" />
    <path
       d="m 159.156,141.619 h 20 v 39.396 h -20 z"
       id="path75"
       inkscape:connector-curvature="0"
       style="fill:#5fa6b0" />
    <path
       d="m 159.156,102.223 h 20 v 39.396 h -20 z"
       id="path77"
       inkscape:connector-curvature="0"
       style="fill:#5fa6b0" />
    <path
       d="m 137.791,7.5 36.393,94.723 h 20 L 157.791,7.5 Z"
       id="path79"
       inkscape:connector-curvature="0"
       style="fill:#00595e" />
    <path
       d="m 177.038,338.323 c 0,-51.28 39.003,-93.448 88.962,-98.462 -3.289,-0.33 -6.624,-0.5 -10,-0.5 -54.655,0 -98.962,44.307 -98.962,98.962 0,54.655 44.307,98.962 98.962,98.962 3.376,0 6.711,-0.17 10,-0.5 -49.959,-5.013 -88.962,-47.182 -88.962,-98.462 z"
       id="path81"
       inkscape:connector-curvature="0"
       style="fill:#ffc277" />
    <g
       id="g89">
      <path
         d="M 394.4,219.93 C 382.162,205.496 369.961,194.714 360.343,187.274 V 94.724 H 348.714 L 385.108,0 H 126.875 l 36.393,94.723 h -11.612 v 92.55 c -9.617,7.44 -21.819,18.222 -34.057,32.656 C 93.559,248.287 64.9,296.697 64.9,366.29 c 0,35.547 14.234,68.422 41.164,95.071 l 10.551,-10.662 C 99.866,434.125 79.9,406.026 79.9,366.29 c 0,-51.994 16.398,-97.814 48.741,-136.187 20.758,-24.628 41.802,-38.121 47.602,-41.589 h 159.513 c 5.811,3.475 26.85,16.968 47.602,41.589 32.343,38.373 48.741,84.193 48.741,136.187 0,67.235 -58.542,114.752 -113.622,125.324 C 299.842,495.188 280.19,497 260.07,497 h -8.141 c -20.12,0 -39.771,-1.812 -58.407,-5.386 -23.341,-4.475 -46.877,-15.621 -66.272,-31.385 l -9.461,11.641 c 21.285,17.299 47.178,29.543 72.909,34.476 19.564,3.752 40.165,5.654 61.231,5.654 h 8.141 c 21.066,0 41.667,-1.902 61.233,-5.654 C 382.286,494.64 447.1,441.576 447.1,366.29 447.1,296.697 418.441,248.287 394.4,219.93 Z M 148.707,15 H 363.276 L 332.644,94.723 H 306.33 L 318.392,54.199 304.015,49.92 290.68,94.724 H 263.492 V 43.661 h -15 V 94.724 H 221.304 L 207.969,49.92 193.592,54.199 205.654,94.723 H 179.34 Z m 17.949,94.723 h 178.688 v 24.396 H 166.656 Z m 178.688,39.396 v 24.396 H 166.656 v -24.396 z"
         id="path83"
         inkscape:connector-curvature="0" />
      <path
         d="m 323.661,276.787 11.098,-10.093 C 314.624,244.556 285.918,231.86 256,231.86 c -58.702,0 -106.46,47.758 -106.46,106.46 0,58.708 47.758,106.47 106.46,106.47 58.702,0 106.46,-47.762 106.46,-106.47 0,-21.019 -6.125,-41.352 -17.712,-58.799 l -12.496,8.299 c 9.949,14.98 15.208,32.443 15.208,50.5 0,50.437 -41.028,91.47 -91.46,91.47 -50.432,0 -91.46,-41.033 -91.46,-91.47 0,-50.431 41.028,-91.46 91.46,-91.46 25.702,0 50.363,10.908 67.661,29.927 z"
         id="path85"
         inkscape:connector-curvature="0" />
      <path
         d="m 292.654,309.556 v -0.339 c 0,-17.641 -12.529,-32.408 -29.154,-35.88 v -8.323 h -15 v 8.323 c -16.626,3.471 -29.154,18.239 -29.154,35.88 v 4.707 c 0,16.664 12.846,30.376 29.154,31.773 v 42.045 c -8.255,-3.057 -14.154,-11.009 -14.154,-20.313 v -0.339 h -15 v 0.339 c 0,17.641 12.529,32.408 29.154,35.88 v 8.323 h 15 v -8.323 c 16.626,-3.471 29.154,-18.239 29.154,-35.88 v -4.707 c 0,-16.664 -12.846,-30.375 -29.154,-31.773 v -42.046 c 8.255,3.057 14.154,11.009 14.154,20.313 v 0.339 h 15 z m -58.308,4.368 v -4.707 c 0,-9.304 5.9,-17.256 14.154,-20.313 v 41.676 c -8.014,-1.318 -14.154,-8.274 -14.154,-16.656 z m 43.308,48.799 v 4.707 c 0,9.304 -5.9,17.256 -14.154,20.313 v -41.676 c 8.014,1.318 14.154,8.274 14.154,16.656 z"
         id="path87"
         inkscape:connector-curvature="0" />
    </g>
    <g
       id="g99">
      <g
         id="g93">
        <path
           d="m 114.567,340.068 h 15 v 15 h -15 z"
           id="path91"
           inkscape:connector-curvature="0" />
      </g>
      <g
         id="g97">
        <path
           d="m 382.567,340.068 h 15 v 15 h -15 z"
           id="path95"
           inkscape:connector-curvature="0" />
      </g>
    </g>
  </g>
  <g
     id="g54"
     transform="translate(125.446,120.437)">
    <path
       style="fill:#71e4bf"
       inkscape:connector-curvature="0"
       d="m 7.5,185.286 h 497 v 282 H 7.5 Z"
       id="path2" />
    <path
       style="fill:#e1fd9e"
       inkscape:connector-curvature="0"
       d="m 474.5,255.786 v 141 c -20.43,0 -37,16.57 -37,37 0,1.18 0.06,2.35 0.17,3.5 H 74.33 c 0.11,-1.15 0.17,-2.32 0.17,-3.5 0,-20.43 -16.57,-37 -37,-37 v -141 c 20.43,0 37,-16.57 37,-37 0,-1.18 -0.06,-2.35 -0.17,-3.5 h 363.34 c -0.11,1.15 -0.17,2.32 -0.17,3.5 0,20.43 16.57,37 37,37 z"
       id="path4" />
    <path
       style="fill:#71e4bf"
       inkscape:connector-curvature="0"
       d="m 454.213,185.286 -37.15,-61.894 c -17.517,10.514 -40.252,4.834 -50.766,-12.683 -0.607,-1.012 -1.158,-2.046 -1.656,-3.088 l -129.396,77.666 h 218.968 z"
       id="path6" />
    <path
       style="fill:#71e4bf"
       inkscape:connector-curvature="0"
       d="M 489.202,185.286 406.504,47.505 176.951,185.286 Z"
       id="path8" />
    <circle
       style="fill:#91eacd"
       cx="256"
       cy="326.28601"
       r="79"
       id="circle10" />
    <path
       style="fill:#5fa6b0"
       inkscape:connector-curvature="0"
       d="m 7.5,185.286 h 20 v 282 h -20 z"
       id="path12" />
    <path
       style="fill:#8ae897"
       inkscape:connector-curvature="0"
       d="m 57.5,396.786 v -141 c 20.43,0 37,-16.57 37,-37 0,-1.18 -0.06,-2.35 -0.17,-3.5 h -20 c 0.11,1.15 0.17,2.32 0.17,3.5 0,20.43 -16.57,37 -37,37 v 141 c 20.43,0 37,16.57 37,37 0,1.18 -0.06,2.35 -0.17,3.5 h 20 c 0.11,-1.15 0.17,-2.32 0.17,-3.5 0,-20.43 -16.57,-37 -37,-37 z"
       id="path14" />
    <g
       id="g26">
      <g
         id="g24">
        <g
           id="g18">
          <path
             style="fill:#5fa6b0"
             inkscape:connector-curvature="0"
             d="m 420.189,128.6 -3.126,-5.209 c -2.89,1.735 -5.923,3.019 -9.019,3.892 3.93,1.1 8.035,1.554 12.145,1.317 z"
             id="path16" />
        </g>
        <g
           id="g22">
          <path
             style="fill:#5fa6b0"
             inkscape:connector-curvature="0"
             d="m 366.297,110.708 c -0.607,-1.012 -1.158,-2.046 -1.656,-3.088 l -129.396,77.666 h 20 l 115.091,-69.079 c -1.484,-1.679 -2.844,-3.508 -4.039,-5.499 z"
             id="path20" />
        </g>
      </g>
    </g>
    <path
       style="fill:#5fa6b0"
       inkscape:connector-curvature="0"
       d="M 406.504,47.505 176.951,185.286 h 20 L 411.801,56.33 Z"
       id="path28" />
    <path
       style="fill:#5fa6b0"
       inkscape:connector-curvature="0"
       d="m 197,326.286 c 0,-40.241 30.094,-73.43 69,-78.348 -3.278,-0.414 -6.61,-0.652 -10,-0.652 -43.63,0 -79,35.37 -79,79 0,43.631 35.37,79 79,79 3.39,0 6.722,-0.238 10,-0.652 -38.906,-4.919 -69,-38.108 -69,-78.348 z"
       id="path30" />
    <g
       id="g40">
      <g
         id="g34">
        <path
           inkscape:connector-curvature="0"
           d="m 398.509,318.786 h 15 v 15 h -15 z"
           id="path32" />
      </g>
      <g
         id="g38">
        <path
           inkscape:connector-curvature="0"
           d="m 98.509,318.786 h 15 v 15 h -15 z"
           id="path36" />
      </g>
    </g>
    <path
       inkscape:connector-curvature="0"
       d="m 169.5,326.286 c 0,47.696 38.804,86.5 86.5,86.5 47.696,0 86.5,-38.804 86.5,-86.5 0,-47.696 -38.804,-86.5 -86.5,-86.5 -47.696,0 -86.5,38.804 -86.5,86.5 z m 158,0 c 0,39.425 -32.075,71.5 -71.5,71.5 -39.425,0 -71.5,-32.075 -71.5,-71.5 0,-39.425 32.075,-71.5 71.5,-71.5 39.425,0 71.5,32.075 71.5,71.5 z"
       id="path42" />
    <path
       inkscape:connector-curvature="0"
       d="m 248.5,267.764 v 5.442 c -13.355,3.357 -23.273,15.463 -23.273,29.845 v 3.757 c 0,13.618 10.146,24.905 23.273,26.717 v 29.868 c -4.923,-2.672 -8.273,-7.888 -8.273,-13.872 v -0.271 h -15 v 0.271 c 0,14.382 9.918,26.487 23.273,29.844 v 5.442 h 15 v -5.442 c 13.355,-3.357 23.273,-15.463 23.273,-29.844 v -3.758 c 0,-13.618 -10.146,-24.905 -23.273,-26.716 v -29.868 c 4.923,2.672 8.273,7.889 8.273,13.873 v 0.27 h 15 v -0.27 c 0,-14.382 -9.918,-26.487 -23.273,-29.845 v -5.442 h -15 z m 0,50.429 c -4.796,-1.565 -8.273,-6.073 -8.273,-11.385 v -3.757 c 0,-5.984 3.35,-11.2 8.273,-13.873 z m 23.273,27.57 v 3.758 c 0,5.984 -3.35,11.2 -8.273,13.872 v -29.014 c 4.796,1.564 8.273,6.073 8.273,11.384 z"
       id="path44" />
    <path
       inkscape:connector-curvature="0"
       d="m 0,177.785 v 297 h 83.49 v -15 H 15 v -267 h 482 v 267 H 98.49 v 15 H 512 v -297 z"
       id="path46" />
    <path
       inkscape:connector-curvature="0"
       d="m 66.076,444.785 h 379.848 l -0.788,-8.216 c -0.09,-0.938 -0.136,-1.875 -0.136,-2.784 0,-16.266 13.233,-29.5 29.5,-29.5 h 7.5 v -156 h -7.5 c -16.267,0 -29.5,-13.234 -29.5,-29.5 0,-0.909 0.046,-1.846 0.136,-2.784 l 0.788,-8.216 H 368.22 v 15 h 61.958 c 1.806,20.173 17.129,36.512 36.822,39.868 v 127.265 c -19.693,3.355 -35.017,19.695 -36.822,39.868 H 81.822 C 80.017,409.613 64.693,393.273 45,389.918 V 262.653 c 19.693,-3.355 35.017,-19.695 36.822,-39.868 H 353.22 v -15 H 66.076 l 0.788,8.216 c 0.09,0.938 0.136,1.875 0.136,2.784 0,16.266 -13.233,29.5 -29.5,29.5 H 30 v 156 h 7.5 c 16.267,0 29.5,13.234 29.5,29.5 0,0.909 -0.046,1.846 -0.136,2.784 z"
       id="path48" />
    <path
       inkscape:connector-curvature="0"
       d="m 390.873,120.285 c -7.646,-1.911 -14.09,-6.684 -18.151,-13.454 -0.468,-0.776 -0.909,-1.598 -1.311,-2.441 l -3.552,-7.456 -86.489,51.92 7.721,12.86 72.985,-43.813 c 6.125,8.425 14.928,14.378 25.16,16.936 9.067,2.266 18.401,1.65 26.931,-1.689 l 15.603,25.997 12.861,-7.72 -23,-38.321 -6.431,3.86 c -6.751,4.053 -14.68,5.232 -22.327,3.321 z"
       id="path50" />
    <path
       inkscape:connector-curvature="0"
       d="m 477.621,151.426 -68.55,-114.211 -186.001,111.64 7.719,12.861 173.14,-103.92 60.831,101.349 z"
       id="path52" />
  </g>
  <path
     style="font-style:normal;font-variant:normal;font-weight:bold;font-stretch:normal;font-size:461.68359375px;line-height:1.25;font-family:'Source Sans Pro';-inkscape-font-specification:'Source Sans Pro, Bold';font-variant-ligatures:normal;font-variant-caps:normal;font-variant-numeric:normal;font-feature-settings:normal;text-align:start;letter-spacing:0px;word-spacing:0px;writing-mode:lr-tb;text-anchor:start;fill:#5fa6b0;fill-opacity:1;stroke:none;stroke-width:16;stroke-miterlimit:4;stroke-dasharray:none"
     d="m 732.4668,179.89648 v 284.55664 h 14 V 179.89648 Z m 292.707,0 v 151.28125 c 0,49.69426 10.2219,84.35664 28.8594,106.32032 18.6375,21.96367 46.1394,32.49609 84.5645,32.49609 2.3761,0 4.7079,-0.0405 6.998,-0.12109 -34.7899,-1.22498 -60.0772,-11.76916 -77.5625,-32.375 -18.6375,-21.96368 -28.8594,-56.62606 -28.8594,-106.32032 V 179.89648 Z m 172.67,0 v 159.13086 c -2e-4,29.46306 -4.4225,50.35178 -14.6485,64.66797 -8.8825,12.43544 -22.2438,18.67654 -37.5371,20.10352 2.272,0.21601 4.587,0.32812 6.9395,0.32812 18.213,0 34.3717,-6.11545 44.5976,-20.43164 10.226,-14.31619 14.6484,-35.20491 14.6485,-64.66797 V 179.89648 Z m 136.6582,0 v 284.55664 h 14 V 179.89648 Z m 118.1914,0 v 44.01954 h 14 v -44.01954 z m -646.04692,41.71094 c 25.3305,0 48.46711,5.21908 65.22461,21.05664 16.75751,15.83756 25.87891,41.2866 25.87891,78.35742 0,36.84836 -9.09368,62.75296 -25.75,79.2129 -16.65632,16.45991 -39.87074,22.50781 -65.35352,22.50781 h 14 c 25.48278,0 48.6972,-6.04791 65.35352,-22.50781 16.65632,-16.45994 25.75,-42.36454 25.75,-79.2129 0,-37.07082 -9.1214,-62.51986 -25.87891,-78.35742 -16.7575,-15.83756 -39.89411,-21.05664 -65.22461,-21.05664 z m 727.76372,2.3086 v 240.5371 h 14 v -240.5371 z"
     id="path871"
     inkscape:connector-curvature="0" />
  <path
     style="color:#000000;font-style:normal;font-variant:normal;font-weight:bold;font-stretch:normal;font-size:461.68359375px;line-height:1.25;font-family:'Source Sans Pro';-inkscape-font-specification:'Source Sans Pro, Bold';font-variant-ligatures:normal;font-variant-position:normal;font-variant-caps:normal;font-variant-numeric:normal;font-variant-alternates:normal;font-feature-settings:normal;text-indent:0;text-align:start;text-decoration:none;text-decoration-line:none;text-decoration-style:solid;text-decoration-color:#000000;letter-spacing:0px;word-spacing:0px;text-transform:none;writing-mode:lr-tb;direction:ltr;text-orientation:mixed;dominant-baseline:auto;baseline-shift:baseline;text-anchor:start;white-space:normal;shape-padding:0;clip-rule:nonzero;display:inline;overflow:visible;visibility:visible;opacity:1;isolation:auto;mix-blend-mode:normal;color-interpolation:sRGB;color-interpolation-filters:linearRGB;solid-color:#000000;solid-opacity:1;vector-effect:none;fill:#000000;fill-opacity:1;fill-rule:nonzero;stroke:none;stroke-width:16;stroke-linecap:butt;stroke-linejoin:miter;stroke-miterlimit:4;stroke-dasharray:none;stroke-dashoffset:0;stroke-opacity:1;color-rendering:auto;image-rendering:auto;shape-rendering:auto;text-rendering:auto;enable-background:accumulate"
     d="m 716.4668,163.89648 v 8 308.55664 h 98.49023 c 45.30554,10e-6 84.61362,-12.36537 112.51563,-38.9707 27.902,-26.60533 43.68554,-66.96892 43.68554,-120.46094 0,-53.71596 -15.82809,-93.63072 -44.33593,-119.60351 -28.50785,-25.97279 -68.78215,-37.52149 -116.01954,-37.52149 z m 292.707,0 v 8 159.28125 c 0,51.87614 10.5536,90.6219 32.6602,116.67383 22.1066,26.05193 55.3174,38.14258 96.7637,38.14258 41.4462,0 74.3614,-12.11773 96.1132,-38.19531 21.7518,-26.07758 31.9239,-64.78137 31.9239,-116.6211 V 163.89648 h -84.791 v 175.13086 c 0,27.78571 -4.5812,45.44577 -11.668,55.36719 -7.0868,9.92142 -16.55,13.73242 -31.5781,13.73242 -14.7749,0 -23.8028,-3.7246 -30.6407,-13.62695 -6.8378,-9.90235 -11.2226,-27.64405 -11.2226,-55.47266 V 163.89648 Z m 309.3282,0 v 8 308.55664 h 88.0234 V 163.89648 Z m 118.1914,0 v 8 68.01954 h 81.7168 v 240.5371 h 87.5625 v -240.5371 h 81.7168 v -76.01954 z m -704.2266,16 h 78.33593 c 44.63765,0 80.54106,10.84307 105.24219,33.34766 24.70114,22.50459 39.11328,57.15282 39.11328,107.77734 0,50.3868 -14.45795,85.74008 -38.72656,108.88086 -24.26861,23.14079 -59.06027,34.55078 -101.47461,34.55078 H 732.4668 Z m 292.707,0 h 55.5606 v 159.13086 c 0,29.42015 4.1577,50.22919 14.0566,64.56446 9.8989,14.33526 25.802,20.53515 43.8067,20.53515 18.213,0 34.3717,-6.11545 44.5976,-20.43164 10.226,-14.31619 14.6485,-35.20491 14.6485,-64.66797 V 179.89648 h 52.791 v 151.28125 c 0,49.73067 -9.912,84.43502 -28.211,106.37305 -18.2989,21.93803 -45.4011,32.44336 -83.8261,32.44336 -38.4251,0 -65.927,-10.53242 -84.5645,-32.49609 -18.6375,-21.96368 -28.8594,-56.62606 -28.8594,-106.32032 z m 309.3282,0 h 56.0234 v 284.55664 h -56.0234 z m 118.1914,0 h 218.9961 v 44.01954 h -81.7168 v 240.5371 h -55.5625 v -240.5371 h -81.7168 z m -664.20317,41.71094 v 8 193.13477 h 18.15625 c 25.48278,0 48.6972,-6.04789 65.35352,-22.50781 16.65632,-16.45993 25.75,-42.36454 25.75,-79.2129 0,-37.07082 -9.1214,-62.51986 -25.87891,-78.35742 -16.7575,-15.83756 -39.89411,-21.05664 -65.22461,-21.05664 z m 16,16 h 2.15625 c 23.14629,0 41.56127,4.70632 54.23633,16.68555 12.67506,11.97923 20.86719,32.23837 20.86719,66.72851 0,34.25092 -8.21985,55.20643 -20.99609,67.83204 -12.77625,12.6256 -31.11342,17.88867 -54.10743,17.88867 h -2.15625 z"
     id="path901"
     inkscape:connector-curvature="0" />
</svg>
