<?xml version="1.0" encoding="UTF-8" standalone="no"?>
<!-- Created with Inkscape (http://www.inkscape.org/) -->

<svg
   xmlns:dc="http://purl.org/dc/elements/1.1/"
   xmlns:cc="http://creativecommons.org/ns#"
   xmlns:rdf="http://www.w3.org/1999/02/22-rdf-syntax-ns#"
   xmlns:svg="http://www.w3.org/2000/svg"
   xmlns="http://www.w3.org/2000/svg"
   xmlns:sodipodi="http://sodipodi.sourceforge.net/DTD/sodipodi-0.dtd"
   xmlns:inkscape="http://www.inkscape.org/namespaces/inkscape"
   width="374.52792mm"
   height="147.49858mm"
   viewBox="0 0 374.52792 147.49858"
   version="1.1"
   id="svg1965"
   inkscape:version="0.92.4 5da689c313, 2019-01-14"
   sodipodi:docname="logo.svg">
  <defs
     id="defs1959" />
  <sodipodi:namedview
     id="base"
     pagecolor="#ffffff"
     bordercolor="#666666"
     borderopacity="1.0"
     inkscape:pageopacity="0.0"
     inkscape:pageshadow="2"
     inkscape:zoom="0.24748737"
     inkscape:cx="957.77353"
     inkscape:cy="173.69879"
     inkscape:document-units="mm"
     inkscape:current-layer="layer1"
     showgrid="false"
     fit-margin-left="-2.7755576e-17"
     fit-margin-top="0"
     fit-margin-right="0"
     fit-margin-bottom="0"
     inkscape:window-width="1366"
     inkscape:window-height="710"
     inkscape:window-x="0"
     inkscape:window-y="0"
     inkscape:window-maximized="1"
     showguides="false"
     inkscape:object-paths="true"
     inkscape:guide-bbox="true" />
  <metadata
     id="metadata1962">
    <rdf:RDF>
      <cc:Work
         rdf:about="">
        <dc:format>image/svg+xml</dc:format>
        <dc:type
           rdf:resource="http://purl.org/dc/dcmitype/StillImage" />
        <dc:title />
      </cc:Work>
    </rdf:RDF>
  </metadata>
  <g
     inkscape:label="Layer 1"
     inkscape:groupmode="layer"
     id="layer1"
     transform="translate(75.383013,-78.863804)">
    <path
       style="fill:#e0e0e0;fill-opacity:1;fill-rule:evenodd;stroke:none;stroke-width:5.29166651;stroke-linecap:round;stroke-linejoin:round;stroke-miterlimit:16.79999924;stroke-dasharray:none;stroke-opacity:1"
       d="m -72.73686,81.509634 59.158857,84.487356 -40.415598,57.71929 h 42.318693 L 87.899547,81.509634 H 45.580887 L 7.5818885,135.778 -30.418203,81.509634 Z"
       id="path1178"
       inkscape:connector-curvature="0" />
    <path
       style="color:#000000;font-style:normal;font-variant:normal;font-weight:normal;font-stretch:normal;font-size:medium;line-height:normal;font-family:sans-serif;font-variant-ligatures:normal;font-variant-position:normal;font-variant-caps:normal;font-variant-numeric:normal;font-variant-alternates:normal;font-feature-settings:normal;text-indent:0;text-align:start;text-decoration:none;text-decoration-line:none;text-decoration-style:solid;text-decoration-color:#000000;letter-spacing:normal;word-spacing:normal;text-transform:none;writing-mode:lr-tb;direction:ltr;text-orientation:mixed;dominant-baseline:auto;baseline-shift:baseline;text-anchor:start;white-space:normal;shape-padding:0;clip-rule:nonzero;display:inline;overflow:visible;visibility:visible;opacity:1;isolation:auto;mix-blend-mode:normal;color-interpolation:sRGB;color-interpolation-filters:linearRGB;solid-color:#000000;solid-opacity:1;vector-effect:none;fill:#000000;fill-opacity:1;fill-rule:evenodd;stroke:none;stroke-width:5.29166651;stroke-linecap:round;stroke-linejoin:round;stroke-miterlimit:16.79999924;stroke-dasharray:none;stroke-dashoffset:0;stroke-opacity:1;color-rendering:auto;image-rendering:auto;shape-rendering:auto;text-rendering:auto;enable-background:accumulate"
       d="m -72.736895,78.863802 a 2.6460979,2.6460979 0 0 0 -2.167643,4.163742 l 58.096714,82.969616 -39.353314,56.20121 a 2.6460979,2.6460979 0 0 0 2.167643,4.16375 h 13.436565 a 2.6460979,2.6460979 0 1 0 0,-5.29167 h -8.354343 l 37.500525,-53.55607 a 2.6460979,2.6460979 0 0 0 0,-3.03513 L -67.653967,84.155468 h 35.85859 L 5.4144215,137.29538 a 2.6460979,2.6460979 0 0 0 4.334616,0 L 46.958137,84.155468 h 35.85862 l -6.96253,9.943924 -4.80659,6.864698 -84.099614,120.10636 h -19.832036 a 2.6460979,2.6460979 0 1 0 0,5.29167 h 21.209386 a 2.6460979,2.6460979 0 0 0 2.1669745,-1.12793 l 84.8898995,-121.23497 4.8066,-6.864701 9.87778,-14.106975 a 2.6460979,2.6460979 0 0 0 -2.16698,-4.163742 h -42.31886 a 2.6460979,2.6460979 0 0 0 -2.16698,1.127924 L 7.5813965,131.16518 -28.251053,79.991726 a 2.6460979,2.6460979 0 0 0 -2.166975,-1.127924 z"
       id="path1180"
       inkscape:connector-curvature="0" />
    <path
       style="fill:#e0e0e0;fill-opacity:1;fill-rule:evenodd;stroke:none;stroke-width:5.29166651;stroke-linecap:round;stroke-linejoin:round;stroke-miterlimit:16.79999924;stroke-dasharray:none;stroke-opacity:1"
       d="M 107.89948,81.509635 8.3250923,223.71628 H 50.643713 235.87007 L 211.59674,189.05055 H 74.917013 l 41.839667,-59.75305 6.73406,-9.61723 26.72744,-38.170635 z"
       id="path1176"
       inkscape:connector-curvature="0"
       sodipodi:nodetypes="cccccccccc" />
    <path
       style="color:#000000;font-style:normal;font-variant:normal;font-weight:normal;font-stretch:normal;font-size:medium;line-height:normal;font-family:sans-serif;font-variant-ligatures:normal;font-variant-position:normal;font-variant-caps:normal;font-variant-numeric:normal;font-variant-alternates:normal;font-feature-settings:normal;text-indent:0;text-align:start;text-decoration:none;text-decoration-line:none;text-decoration-style:solid;text-decoration-color:#000000;letter-spacing:normal;word-spacing:normal;text-transform:none;writing-mode:lr-tb;direction:ltr;text-orientation:mixed;dominant-baseline:auto;baseline-shift:baseline;text-anchor:start;white-space:normal;shape-padding:0;clip-rule:nonzero;display:inline;overflow:visible;visibility:visible;opacity:1;isolation:auto;mix-blend-mode:normal;color-interpolation:sRGB;color-interpolation-filters:linearRGB;solid-color:#000000;solid-opacity:1;vector-effect:none;fill:#000000;fill-opacity:1;fill-rule:evenodd;stroke:none;stroke-width:5.29166651;stroke-linecap:round;stroke-linejoin:round;stroke-miterlimit:16.79999924;stroke-dasharray:none;stroke-dashoffset:0;stroke-opacity:1;color-rendering:auto;image-rendering:auto;shape-rendering:auto;text-rendering:auto;enable-background:accumulate"
       d="m 107.8992,78.863802 a 2.6460979,2.6460979 0 0 0 -2.16697,1.127924 L 6.1579433,222.19837 a 2.6460979,2.6460979 0 0 0 2.166975,4.16375 H 50.643753 235.87001 a 2.6460979,2.6460979 0 0 0 2.16763,-4.16375 l -24.27343,-34.66524 a 2.6460979,2.6460979 0 0 0 -2.16765,-1.12861 h -58.78092 -9.26041 -63.555817 l 42.416027,-60.57511 4.68394,-6.68968 25.28633,-36.112186 a 2.6460979,2.6460979 0 0 0 -2.16768,-4.163742 z m 1.37735,5.291666 h 35.8593 l -22.37109,31.949132 -4.68464,6.68968 -45.330577,64.73885 a 2.6460979,2.6460979 0 0 0 2.16768,4.16306 h 68.638007 9.26041 57.40357 l 20.56861,29.37426 H 50.643753 13.40781 Z"
       id="path1879"
       inkscape:connector-curvature="0" />
    <path
       inkscape:connector-curvature="0"
       style="fill:#e0e0e0;fill-opacity:1;fill-rule:evenodd;stroke:none;stroke-width:5.29166651;stroke-linecap:round;stroke-linejoin:round;stroke-miterlimit:16.79999924;stroke-dasharray:none;stroke-opacity:1"
       d="M 170.21817,81.509634 104.2381,175.73851 h 42.31968 l 37.85895,-54.06847 71.45334,102.04624 h 42.31968 L 198.61532,81.509634 Z"
       id="path3835"
       sodipodi:nodetypes="cccccccc" />
    <path
       style="color:#000000;font-style:normal;font-variant:normal;font-weight:normal;font-stretch:normal;font-size:medium;line-height:normal;font-family:sans-serif;font-variant-ligatures:normal;font-variant-position:normal;font-variant-caps:normal;font-variant-numeric:normal;font-variant-alternates:normal;font-feature-settings:normal;text-indent:0;text-align:start;text-decoration:none;text-decoration-line:none;text-decoration-style:solid;text-decoration-color:#000000;letter-spacing:normal;word-spacing:normal;text-transform:none;writing-mode:lr-tb;direction:ltr;text-orientation:mixed;dominant-baseline:auto;baseline-shift:baseline;text-anchor:start;white-space:normal;shape-padding:0;clip-rule:nonzero;display:inline;overflow:visible;visibility:visible;opacity:1;isolation:auto;mix-blend-mode:normal;color-interpolation:sRGB;color-interpolation-filters:linearRGB;solid-color:#000000;solid-opacity:1;vector-effect:none;fill:#000000;fill-opacity:1;fill-rule:evenodd;stroke:none;stroke-width:5.29166651;stroke-linecap:round;stroke-linejoin:round;stroke-miterlimit:16.79999924;stroke-dasharray:none;stroke-dashoffset:0;stroke-opacity:1;color-rendering:auto;image-rendering:auto;shape-rendering:auto;text-rendering:auto;enable-background:accumulate"
       d="m 170.21821,78.863802 c -0.86328,-1.3e-4 -1.67235,0.420865 -2.16765,1.127924 l -21.36373,30.511834 -4.57577,6.53466 -39.06339,55.78697 c -1.22788,1.75376 0.0268,4.16376 2.16765,4.16374 h 42.31957 c 0.8634,-3e-5 1.67249,-0.42129 2.16764,-1.12861 l 34.71428,-49.57754 26.34945,37.63147 4.54755,6.4947 38.38869,54.82524 c 0.4953,0.70707 1.30438,1.12806 2.16767,1.12793 h 42.31955 c 2.14088,1e-5 3.39552,-2.40999 2.16763,-4.16375 L 237.5319,132.47569 c -2.0098,-2.96528 -6.43367,0.13235 -4.33461,3.03513 l 59.91021,85.55963 h -35.85998 l -37.59909,-53.69663 -4.54684,-6.4947 -28.51781,-40.72654 c -1.05348,-1.50401 -3.28114,-1.50401 -4.33462,0 l -36.09162,51.54469 h -35.86 l 36.14814,-51.62392 4.57577,-6.53466 20.5741,-29.383222 h 25.64253 l 31.68039,45.244442 c 2.0099,2.96477 6.43317,-0.13243 4.33462,-3.03513 L 200.78242,79.991726 c -0.49517,-0.706868 -1.30394,-1.127838 -2.16699,-1.127924 z"
       id="path1913"
       inkscape:connector-curvature="0"
       sodipodi:nodetypes="cccccccccccccccccccccccccccccccccc" />
  </g>
</svg>
